<svg width="22" height="22" viewBox="0 0 22 22" fill="none" xmlns="http://www.w3.org/2000/svg">
<path d="M20.7838 9.04323L14.9134 14.9135C13.2919 16.5352 10.6648 16.5352 9.0432 14.9135L7.08653 12.9566L9.0432 11.0001L11 12.9566C11.5405 13.496 12.4175 13.4971 12.9569 12.9566L18.827 7.08656C19.3661 6.5467 19.3661 5.669 18.827 5.12901L16.8703 3.17233C16.3309 2.63326 15.4528 2.63326 14.9134 3.17233L12.8176 5.26841C11.8461 4.69662 10.7419 4.4514 9.64867 4.52505L12.9569 1.21566C14.5784 -0.405179 17.2067 -0.405179 18.827 1.21566L20.7839 3.17233C22.4053 4.79326 22.4053 7.4224 20.7838 9.04323ZM9.18114 16.7326L7.08657 18.827C6.54608 19.3676 5.66911 19.3662 5.1299 18.827L3.17309 16.8703C2.6326 16.331 2.6326 15.4539 3.17309 14.9134L9.04325 9.04319C9.58255 8.50411 10.4609 8.50411 11.0001 9.04319L12.957 11.0001L14.9134 9.04319L12.957 7.08651C11.3353 5.46567 8.70818 5.46567 7.08662 7.08651L1.21633 12.9566C-0.40528 14.5785 -0.40528 17.2069 1.21633 18.827L3.17309 20.7837C4.79342 22.4055 7.42173 22.4055 9.04325 20.7837L12.3513 17.4756C11.2581 17.5485 10.1568 17.3029 9.18114 16.7326Z" fill="#062CB4"/>
</svg>
