<svg width="25" height="22" viewBox="0 0 25 22" fill="none" xmlns="http://www.w3.org/2000/svg">
<path d="M21.5263 2.35528C20.4135 1.4346 18.9843 0.928632 17.5029 0.928632C15.7919 0.928632 14.1355 1.609 12.9593 2.79737C12.7479 3.01132 12.5497 3.24098 12.3636 3.49041C10.9233 1.57351 8.51666 0.589968 6.13637 1.02496C4.16117 1.3834 2.60828 2.46885 1.52385 4.24886C-0.00622505 6.76197 -0.13145 9.18585 1.15375 11.4536C1.84071 12.6668 2.73199 13.8491 3.87878 15.0679C5.97921 17.3006 8.46545 19.4198 11.7035 21.7347C11.9104 21.8832 12.1319 21.9583 12.3631 21.9583C12.719 21.9583 12.9593 21.7783 13.0785 21.6901C16.0002 19.6038 18.2953 17.6808 20.302 15.6352C21.4224 14.4935 22.6939 13.0901 23.6237 11.3375C24.0222 10.5887 24.4765 9.58079 24.4496 8.42944C24.3898 5.95181 23.4067 3.90817 21.5263 2.35528ZM22.1018 10.5294C21.2739 12.0878 20.1058 13.374 19.0715 14.4275C17.216 16.3196 15.0942 18.1103 12.3601 20.0845C9.38461 17.9318 7.08139 15.9551 5.13458 13.8846C4.0836 12.7677 3.27192 11.6944 2.6529 10.6019C1.6729 8.87304 1.7819 7.13815 2.99663 5.1447C3.81389 3.80221 4.97386 2.98597 6.44513 2.71879C6.72701 2.66707 7.01244 2.64173 7.29381 2.64173C9.03783 2.64173 10.5826 3.60499 11.4551 5.27753L11.6032 5.55687C11.7553 5.8423 12.0686 6.00454 12.3778 6.01214C12.7018 6.00606 12.9943 5.82101 13.1368 5.53C13.443 4.9054 13.7771 4.42073 14.1847 4.00804C15.0395 3.14567 16.2486 2.65034 17.5029 2.65034C18.5843 2.65034 19.6231 3.01689 20.4287 3.68307C21.9274 4.92061 22.6787 6.48719 22.7269 8.46847C22.7436 9.21627 22.4207 9.92909 22.1018 10.5294Z" fill="#5A5A5A"/>
</svg>
