<svg width="225" height="39" viewBox="0 0 225 39" fill="none" xmlns="http://www.w3.org/2000/svg">
<g clip-path="url(#clip0_76_19)">
<path d="M186.919 31.7726C188.643 31.7726 190.102 30.718 190.102 28.8726C190.102 27.159 188.777 25.9727 186.919 25.9727C185.194 25.9727 183.734 27.159 183.734 28.8726C183.734 30.5863 185.061 31.7726 186.919 31.7726Z" fill="#009DE0"/>
<path d="M199.002 17.9319C198.736 15.0318 194.624 15.2954 192.5 15.8227V18.7227C193.827 18.7227 193.827 19.2499 193.827 20.4363V31.1134H199.134V23.4681C199.134 21.0953 200.726 20.0409 202.451 19.909C203.246 19.909 204.175 20.0409 205.104 20.6999L206.165 16.35C205.37 15.691 204.175 15.4272 202.981 15.4272C201.388 15.4272 199.532 16.2181 199.002 17.9319ZM218.104 15.9545V24.5225C218.104 26.2362 216.911 27.2907 215.717 27.2907C214.655 27.2907 213.726 26.4999 213.726 24.6544V17.5363L208.287 16.0864V24.7863C208.287 28.6089 209.349 31.6407 213.992 31.6407C215.717 31.6407 217.573 30.7179 218.37 29.1362C218.37 32.5634 222.88 31.9043 224.87 31.3771V28.0816C223.677 28.0816 223.543 27.5543 223.543 26.6316V17.4046L218.104 15.9545Z" fill="black"/>
<path d="M114.617 22.5454C114.617 20.8318 115.944 19.7772 117.138 19.9091C118.332 19.9091 119.393 20.7 119.393 22.5454V27.6862C119.393 31.9045 123.108 32.0362 126.292 31.2453V28.4771C124.965 28.4771 124.832 27.8181 124.832 26.7635V22.6773C124.965 18.7228 123.24 15.8227 118.863 15.8227C117.005 15.8227 115.413 16.7455 114.485 18.4591C114.485 15.0319 109.841 15.5592 107.719 16.0865V18.9864C109.311 18.8546 109.311 19.3818 109.311 20.7V31.2453H114.75V22.5454H114.617ZM137.17 15.5592C131.996 15.4273 128.281 18.0636 128.149 23.3363C128.149 27.6862 130.272 31.3772 135.047 31.3772C136.905 31.3772 138.629 30.4544 139.558 28.8727V29.0044C139.558 31.9045 143.272 31.3772 145.262 30.9817V28.0817C143.936 28.0817 143.936 27.5544 143.936 26.3681V17.0092C141.813 16.0865 139.425 15.5592 137.17 15.5592ZM138.629 23.3363C138.629 25.1818 137.833 26.6318 136.241 26.6318C134.517 26.6318 133.588 25.4453 133.588 23.4682C133.721 20.9637 134.915 19.9091 136.772 19.9091C137.303 19.9091 137.966 19.9091 138.629 20.1727V23.3363ZM153.62 17.6682L148.181 16.2183V31.2453H153.62V17.6682ZM166.754 26.3681C166.886 30.718 170.601 31.6407 174.05 31.6407C177.5 31.6407 180.949 29.9271 181.081 26.4999C181.213 22.4136 177.5 22.0181 174.183 21.6227C173.388 21.4908 172.325 21.4908 172.459 20.5682C172.459 19.9091 173.254 19.6455 174.05 19.5137C174.979 19.5137 175.908 19.9091 175.908 20.7H180.683C180.817 17.4046 177.367 15.5592 173.918 15.5592C170.469 15.5592 167.02 17.1409 167.02 20.7C167.02 24.3909 170.866 25.0499 173.918 25.3136C174.713 25.4453 175.642 25.5772 175.642 26.4999C175.642 27.2908 174.713 27.6862 173.918 27.6862C172.989 27.6862 172.193 27.2908 172.193 26.3681H166.754Z" fill="black"/>
<path d="M157.203 8.04541V25.0497C157.203 30.9815 160.652 32.1678 165.429 31.2451L165.296 27.2906C163.705 27.5543 162.642 27.1588 162.642 25.0497V9.6272L157.203 8.04541Z" fill="black"/>
<path d="M33.7969 26.416C33.9296 30.7659 37.6441 31.6886 41.0933 31.6886C44.5427 31.6886 47.9919 29.975 48.1244 26.5478C48.2571 22.4615 44.5427 22.066 41.226 21.6706C40.43 21.5387 39.3687 21.5387 39.5014 20.616C39.5014 19.957 40.2973 19.6933 41.0933 19.5616C42.0219 19.5616 42.9506 19.957 42.9506 20.7479H47.7265C47.8592 17.4524 44.4099 15.6071 40.9607 15.6071C37.5115 15.6071 34.0623 17.1888 34.0623 20.7479C34.0623 24.4387 37.9095 25.0978 40.9607 25.3614C41.7567 25.4932 42.6853 25.6251 42.6853 26.5478C42.6853 27.3387 41.7567 27.7341 40.9607 27.7341C40.1648 27.7341 39.2361 27.3387 39.2361 26.416H33.7969ZM51.1757 8.09351V31.1613H56.6149V22.4615C56.6149 20.7479 57.9415 19.8251 59.2682 19.8251C60.4621 19.8251 61.5235 20.616 61.5235 22.4615V27.3387C61.5235 31.4249 65.1054 31.9522 68.5546 31.0295V27.9977C67.228 27.9977 66.9626 27.6023 66.9626 26.416V22.4615C66.9626 18.507 65.3707 15.6071 60.9928 15.6071C59.2682 15.6071 57.5436 16.3979 56.7476 17.848V9.54347L51.1757 8.09351ZM86.4641 23.5161C86.4641 18.2434 82.4842 15.4752 78.3716 15.4752C74.2591 15.4752 70.1465 18.1115 70.1465 23.5161C70.1465 28.9204 74.2591 31.5568 78.3716 31.5568C82.4842 31.5568 86.4641 28.9204 86.4641 23.5161ZM94.1585 17.848C94.1585 14.9479 90.3113 15.4752 88.5867 15.8706V18.7706C89.9133 18.7706 89.7808 19.4297 89.7808 20.4843V37.3567L94.8219 38.8068V29.1842C95.6178 30.7659 97.2099 31.2932 98.9345 31.2932C103.445 31.2932 105.568 27.4704 105.568 23.3842C105.568 19.0343 103.445 15.3433 98.6691 15.3433C96.8117 15.4752 94.9546 16.3979 94.1585 17.848ZM97.3424 20.2206C99.067 20.0887 100.128 21.5387 100.128 23.5161C100.128 25.6251 99.3325 26.9433 97.4751 26.9433C95.8832 26.9433 95.0871 25.3614 95.0871 23.5161C94.9546 21.5387 95.7505 20.2206 97.3424 20.2206Z" fill="black"/>
<path fill-rule="evenodd" clip-rule="evenodd" d="M78.4498 19.7769C79.9091 20.5677 81.3683 22.4132 81.3683 23.9949C81.3683 25.5767 80.0418 26.895 78.4498 26.895C76.8579 26.895 75.5312 25.5767 75.5312 23.9949C75.664 22.4132 77.1232 20.5677 78.4498 19.7769Z" fill="#FFED00"/>
<path fill-rule="evenodd" clip-rule="evenodd" d="M150.839 7.65015C152.298 8.44105 153.758 10.2865 153.758 11.8683C153.758 13.4501 152.432 14.7682 150.839 14.7682C149.247 14.7682 147.922 13.4501 147.922 11.8683C147.922 10.2865 149.381 8.44105 150.839 7.65015Z" fill="#CD5783"/>
<path opacity="0.8" fill-rule="evenodd" clip-rule="evenodd" d="M14.7295 36.5549C20.4341 33.2596 26.0059 26.1414 26.0059 19.946C26.0059 13.7507 20.9646 8.7417 14.7295 8.7417C8.49432 8.7417 3.45312 13.7507 3.45312 19.946C3.45312 26.2733 9.2903 33.5232 14.7295 36.5549Z" fill="#FFED00"/>
<path opacity="0.8" fill-rule="evenodd" clip-rule="evenodd" d="M5.70766 31.6777C12.3408 31.6777 20.6986 28.3822 23.7499 22.9778C26.9337 17.5733 25.0765 10.7189 19.6373 7.68707C14.1981 4.6553 7.29961 6.3689 4.24837 11.7734C1.06445 17.1778 2.52376 26.405 5.70766 31.6777Z" fill="#6D304E"/>
<path opacity="0.8" fill-rule="evenodd" clip-rule="evenodd" d="M0.265625 22.9779C5.97013 26.2732 14.9913 27.4597 20.2978 24.4279C25.7369 21.2643 27.5942 14.4098 24.4103 9.13713C21.359 3.73266 14.3279 1.88724 9.02138 5.05084C3.5822 8.08261 0.265625 16.9143 0.265625 22.9779Z" fill="#CD5783"/>
<path opacity="0.8" fill-rule="evenodd" clip-rule="evenodd" d="M0 12.8279C3.31657 18.4961 10.4804 24.0323 16.7155 24.0323C22.9507 24.0323 27.9919 19.0232 27.9919 12.8279C27.9919 6.63256 22.9507 1.62354 16.7155 1.62354C10.3477 1.62354 3.05124 7.42346 0 12.8279Z" fill="#2C3766"/>
<path opacity="0.8" fill-rule="evenodd" clip-rule="evenodd" d="M4.90625 3.86447C4.90625 10.4553 8.22283 18.7598 13.662 21.7915C19.1012 24.9551 25.9996 23.1097 29.0509 17.7052C32.2348 12.3007 30.3775 5.44628 24.9384 2.4145C19.4992 -0.749086 10.2128 0.700882 4.90625 3.86447Z" fill="#009DE0"/>
</g>
<defs>
<clipPath id="clip0_76_19">
<rect width="225" height="38.2585" fill="white" transform="translate(0 0.64624)"/>
</clipPath>
</defs>
</svg>
