<svg width="21" height="19" viewBox="0 0 21 19" fill="none" xmlns="http://www.w3.org/2000/svg">
<path d="M15.2803 17H5.7124V18C5.7124 18.2652 5.61159 18.5196 5.43216 18.7071C5.25273 18.8946 5.00937 19 4.75561 19H2.84204C2.58828 19 2.34492 18.8946 2.16549 18.7071C1.98606 18.5196 1.88525 18.2652 1.88525 18V9H0.928467V5H1.88525V2C1.88525 1.46957 2.08686 0.960859 2.44572 0.585786C2.80459 0.210714 3.29131 0 3.79882 0H17.1938C17.7013 0 18.1881 0.210714 18.5469 0.585786C18.9058 0.960859 19.1074 1.46957 19.1074 2V5H20.0642V9H19.1074V18C19.1074 18.2652 19.0066 18.5196 18.8272 18.7071C18.6477 18.8946 18.4044 19 18.1506 19H16.237C15.9833 19 15.7399 18.8946 15.5605 18.7071C15.3811 18.5196 15.2803 18.2652 15.2803 18V17ZM3.79882 2V8H17.1938V2H3.79882ZM17.1938 10H3.79882V15H17.1938V10ZM6.19079 14C5.81015 14 5.44511 13.842 5.17596 13.5607C4.90682 13.2794 4.75561 12.8978 4.75561 12.5C4.75561 12.1022 4.90682 11.7206 5.17596 11.4393C5.44511 11.158 5.81015 11 6.19079 11C6.57142 11 6.93646 11.158 7.20561 11.4393C7.47476 11.7206 7.62597 12.1022 7.62597 12.5C7.62597 12.8978 7.47476 13.2794 7.20561 13.5607C6.93646 13.842 6.57142 14 6.19079 14ZM14.8019 14C14.4212 14 14.0562 13.842 13.787 13.5607C13.5179 13.2794 13.3667 12.8978 13.3667 12.5C13.3667 12.1022 13.5179 11.7206 13.787 11.4393C14.0562 11.158 14.4212 11 14.8019 11C15.1825 11 15.5475 11.158 15.8167 11.4393C16.0858 11.7206 16.237 12.1022 16.237 12.5C16.237 12.8978 16.0858 13.2794 15.8167 13.5607C15.5475 13.842 15.1825 14 14.8019 14Z" fill="#2B2A33"/>
</svg>
