<svg width="40" height="40" viewBox="0 0 40 40" fill="none" xmlns="http://www.w3.org/2000/svg">
<path d="M39.4531 20.0781C39.4531 22.7969 39.3984 25.5235 39.4687 28.2422C39.5859 33.0547 36.5625 36.7735 32.7109 38.4297C31.1641 39.0938 29.5391 39.4453 27.8594 39.4453C22.6016 39.4531 17.3359 39.5235 12.0781 39.4219C8.11719 39.3438 4.85937 37.6875 2.52344 34.4219C1.29687 32.7031 0.710938 30.75 0.710938 28.6328C0.710938 23.0313 0.710938 17.4375 0.710938 11.8359C0.710938 7.26564 2.9375 4.07032 6.89062 1.9922C8.60937 1.09376 10.4766 0.710949 12.4219 0.703136C17.5234 0.703136 22.6328 0.671886 27.7344 0.718761C31.6953 0.750011 35 2.26564 37.4375 5.45314C38.7969 7.23439 39.4531 9.28126 39.4531 11.5313C39.4531 14.375 39.4531 17.2266 39.4531 20.0781ZM3.59375 20.0781C3.59375 22.9453 3.59375 25.8047 3.59375 28.6719C3.59375 29.9531 3.89062 31.1563 4.55469 32.2422C6.29687 35.0938 8.92969 36.4844 12.1953 36.5391C17.4375 36.6172 22.6875 36.5703 27.9375 36.5547C29.2266 36.5547 30.4766 36.2891 31.6406 35.7344C34.8125 34.2188 36.5859 31.8047 36.5703 28.1797C36.5391 22.6328 36.5625 17.086 36.5625 11.5391C36.5625 9.96876 36.1172 8.53126 35.1875 7.26564C33.3906 4.83595 30.9062 3.64064 27.9375 3.60939C22.7031 3.54689 17.4687 3.58595 12.2344 3.59376C11.1172 3.59376 10.0391 3.82032 8.99219 4.21095C6.11719 5.28126 3.44531 7.9922 3.57031 11.9844C3.66406 14.6875 3.59375 17.3828 3.59375 20.0781Z" fill="#5F39E7"/>
<path d="M20.125 28.3594C15.0859 28.3594 11.0234 24.3438 11.0156 19.3438C11.0078 14.4219 15.1016 10.3906 20.1094 10.3906C25.1328 10.3828 29.2109 14.4063 29.2188 19.3672C29.2188 24.3203 25.1484 28.3516 20.125 28.3594ZM20.125 25.4688C23.5547 25.4688 26.3359 22.7266 26.3281 19.3516C26.3203 16.0078 23.5391 13.2734 20.125 13.2734C16.6953 13.2734 13.8984 16 13.8984 19.3672C13.9063 22.7422 16.6953 25.4766 20.125 25.4688Z" fill="#5F39E7"/>
<path d="M30.2735 7.65625C31.3282 7.65625 32.1876 8.55469 32.1876 9.65625C32.1797 10.7578 31.3126 11.6484 30.2579 11.6406C29.2188 11.6328 28.3672 10.7422 28.3672 9.66406C28.3594 8.5625 29.2188 7.65625 30.2735 7.65625Z" fill="#5F39E7"/>
</svg>
