<svg width="20" height="20" viewBox="0 0 20 20" fill="none" xmlns="http://www.w3.org/2000/svg">
<path fill-rule="evenodd" clip-rule="evenodd" d="M10 18.9286C14.9311 18.9286 18.9286 14.9311 18.9286 10C18.9286 5.06889 14.9311 1.07143 10 1.07143C5.06889 1.07143 1.07143 5.06889 1.07143 10C1.07143 14.9311 5.06889 18.9286 10 18.9286ZM10 20C15.5228 20 20 15.5228 20 10C20 4.47715 15.5228 0 10 0C4.47715 0 0 4.47715 0 10C0 15.5228 4.47715 20 10 20Z" fill="#555555"/>
<path d="M10.3281 5.95105C9.7373 5.95105 9.20508 6.05359 8.73145 6.25867C8.2627 6.45886 7.8623 6.75183 7.53027 7.13757C7.20312 7.51843 6.95166 7.97986 6.77588 8.52185C6.6001 9.06384 6.51221 9.67419 6.51221 10.3529C6.51221 11.2513 6.65137 12.0326 6.92969 12.6967C7.21289 13.3558 7.63281 13.8661 8.18945 14.2274C8.75098 14.5887 9.45166 14.7694 10.2915 14.7694C10.77 14.7694 11.2192 14.7303 11.6392 14.6522C12.064 14.5692 12.4766 14.4667 12.877 14.3446V15.4286C12.4863 15.5751 12.0762 15.6825 11.6465 15.7509C11.2168 15.8241 10.7065 15.8607 10.1157 15.8607C9.02686 15.8607 8.11621 15.6361 7.38379 15.1869C6.65625 14.7328 6.10938 14.0931 5.74316 13.2679C5.38184 12.4427 5.20117 11.4686 5.20117 10.3456C5.20117 9.53503 5.31348 8.79529 5.53809 8.12634C5.76758 7.45251 6.09961 6.87146 6.53418 6.38318C6.97363 5.8949 7.51074 5.51892 8.14551 5.25525C8.78516 4.98669 9.51758 4.85242 10.3428 4.85242C10.8848 4.85242 11.4072 4.90613 11.9102 5.01355C12.4131 5.12097 12.8672 5.27478 13.2725 5.47498L12.7744 6.52966C12.4326 6.37341 12.0566 6.23914 11.6465 6.12683C11.2412 6.00964 10.8018 5.95105 10.3281 5.95105Z" fill="#555555"/>
</svg>
