<svg width="25" height="25" viewBox="0 0 25 25" fill="none" xmlns="http://www.w3.org/2000/svg">
<path d="M12.4613 13.876C15.9496 13.876 18.7791 11.0466 18.7791 7.55822C18.7791 4.06984 15.9496 1.25977 12.4613 1.25977C8.97289 1.25977 6.14343 4.08922 6.14343 7.55822C6.14343 11.0272 8.97289 13.876 12.4613 13.876ZM12.4613 2.90705C15.0194 2.90705 17.1124 5.00008 17.1124 7.55822C17.1124 10.1164 15.0194 12.2094 12.4613 12.2094C9.90313 12.2094 7.8101 10.1164 7.8101 7.55822C7.8101 5.00008 9.90313 2.90705 12.4613 2.90705Z" fill="#252525"/>
<path d="M1.53103 23.7404H23.469C23.9341 23.7404 24.3023 23.3722 24.3023 22.9071C24.3023 18.5466 20.7558 14.9807 16.376 14.9807H8.62405C4.26359 14.9807 0.697693 18.5272 0.697693 22.9071C0.697693 23.3722 1.06591 23.7404 1.53103 23.7404ZM8.62405 16.6474H16.376C19.5543 16.6474 22.1706 19.0117 22.5775 22.0737H2.4225C2.82948 19.0311 5.44576 16.6474 8.62405 16.6474Z" fill="#252525"/>
</svg>
