<svg width="40" height="24" viewBox="0 0 40 24" fill="none" xmlns="http://www.w3.org/2000/svg">
<path d="M39.788 21.1998C39.7395 21.0954 39.6944 21.0088 39.6524 20.9394C38.9584 19.6895 37.6322 18.1554 35.6746 16.3365L35.6332 16.2948L35.6125 16.2744L35.5916 16.2535H35.5706C34.6821 15.4065 34.1195 14.837 33.8839 14.5454C33.4527 13.99 33.3562 13.4278 33.5918 12.8582C33.7582 12.4278 34.3835 11.5189 35.4662 10.1303C36.0357 9.39435 36.4867 8.80452 36.8197 8.36013C39.2219 5.1666 40.2633 3.12588 39.9438 2.23719L39.8198 2.02952C39.7364 1.90449 39.5212 1.79011 39.1745 1.6858C38.827 1.58171 38.3828 1.56449 37.8412 1.63387L31.8434 1.6753C31.7462 1.64087 31.6075 1.64408 31.4267 1.6858C31.2462 1.72753 31.1559 1.74846 31.1559 1.74846L31.0515 1.80062L30.9686 1.86328C30.8992 1.90471 30.8228 1.97758 30.7394 2.08175C30.6565 2.18555 30.5871 2.30737 30.5317 2.44618C29.8787 4.12618 29.1362 5.68815 28.303 7.13203C27.7892 7.993 27.3174 8.73916 26.8865 9.37093C26.4562 10.0025 26.0952 10.4678 25.8039 10.7661C25.5121 11.0646 25.2488 11.3038 25.0123 11.4845C24.7762 11.6653 24.5959 11.7417 24.4711 11.7137C24.346 11.6858 24.2282 11.6581 24.1167 11.6303C23.9224 11.5053 23.7662 11.3353 23.6483 11.1201C23.53 10.9049 23.4504 10.6341 23.4087 10.3078C23.3673 9.98127 23.3428 9.70043 23.3358 9.4643C23.3293 9.22847 23.3323 8.89489 23.3464 8.46452C23.3608 8.03392 23.3673 7.74258 23.3673 7.58983C23.3673 7.06215 23.3776 6.48946 23.3982 5.87161C23.4192 5.25377 23.4362 4.76423 23.4504 4.40359C23.4646 4.04258 23.4712 3.66065 23.4712 3.25799C23.4712 2.85533 23.4467 2.53955 23.3982 2.31036C23.3504 2.08146 23.2769 1.85927 23.1801 1.64386C23.0827 1.42867 22.9402 1.26221 22.7532 1.14404C22.5658 1.02601 22.3328 0.932352 22.0555 0.862762C21.3196 0.696228 20.3825 0.606141 19.2437 0.592136C16.6614 0.564417 15.0021 0.731169 14.2662 1.09217C13.9747 1.2447 13.7108 1.45311 13.4749 1.71673C13.2249 2.0223 13.1901 2.18905 13.3705 2.21648C14.2037 2.34129 14.7935 2.63985 15.1407 3.11188L15.2658 3.36201C15.3631 3.54247 15.4603 3.86197 15.5575 4.32007C15.6546 4.77816 15.7173 5.28491 15.7448 5.84003C15.8141 6.85374 15.8141 7.7215 15.7448 8.44337C15.6753 9.16552 15.6097 9.72771 15.547 10.1304C15.4843 10.533 15.3907 10.8593 15.2658 11.1091C15.1407 11.3591 15.0575 11.5118 15.0157 11.5672C14.9741 11.6227 14.9394 11.6576 14.9118 11.6713C14.7313 11.7405 14.5436 11.7757 14.3494 11.7757C14.1548 11.7757 13.9189 11.6784 13.6413 11.4839C13.3638 11.2895 13.0757 11.0223 12.7771 10.6821C12.4786 10.3418 12.1419 9.86631 11.7668 9.25546C11.3921 8.64462 11.0033 7.92268 10.6007 7.08965L10.2675 6.48552C10.0593 6.09687 9.77478 5.53096 9.41378 4.7883C9.05255 4.04536 8.73327 3.3267 8.45572 2.63248C8.34477 2.34092 8.17809 2.11895 7.95597 1.9662L7.85173 1.90354C7.78244 1.8481 7.67119 1.78924 7.51859 1.7265C7.36577 1.66384 7.20632 1.61891 7.03956 1.59126L1.33314 1.6327C0.750021 1.6327 0.354367 1.7648 0.146036 2.02864L0.0626598 2.15345C0.0210082 2.22297 0 2.33399 0 2.48681C0 2.63956 0.0416516 2.82703 0.125028 3.049C0.95806 5.00685 1.86397 6.89503 2.84274 8.71385C3.82152 10.5327 4.67206 11.9978 5.39385 13.1078C6.11579 14.2187 6.85166 15.2672 7.60146 16.2526C8.35126 17.2385 8.84758 17.8703 9.09041 18.1478C9.33354 18.4259 9.52451 18.6338 9.66332 18.7726L10.1841 19.2724C10.5173 19.6056 11.0066 20.0048 11.6522 20.4698C12.298 20.9351 13.013 21.3932 13.7974 21.8448C14.582 22.2957 15.4948 22.6637 16.5362 22.9482C17.5775 23.2331 18.591 23.3474 19.5768 23.2922H21.9719C22.4577 23.2503 22.8257 23.0975 23.0758 22.8339L23.1587 22.7295C23.2144 22.6467 23.2666 22.5179 23.3147 22.3447C23.3634 22.1711 23.3876 21.9799 23.3876 21.772C23.3734 21.1751 23.4189 20.6371 23.5227 20.1581C23.6265 19.6793 23.7449 19.3183 23.8772 19.0752C24.0094 18.8323 24.1587 18.6273 24.3248 18.4611C24.4912 18.2946 24.6098 18.1937 24.6794 18.159C24.7486 18.1241 24.8038 18.1003 24.8455 18.0861C25.1787 17.9751 25.5708 18.0826 26.0225 18.4092C26.4738 18.7355 26.8971 19.1384 27.2931 19.6172C27.6888 20.0964 28.1642 20.6341 28.7195 21.231C29.2751 21.8281 29.7609 22.272 30.1773 22.564L30.5937 22.8139C30.8717 22.9807 31.2327 23.1334 31.6771 23.2722C32.1207 23.411 32.5093 23.4457 32.8431 23.3763L38.1744 23.2932C38.7017 23.2932 39.112 23.2059 39.4031 23.0326C39.6947 22.8591 39.868 22.6679 39.9239 22.4599C39.9796 22.2517 39.9826 22.0155 39.9344 21.7515C39.885 21.4881 39.8364 21.3039 39.788 21.1998Z" fill="#5F39E7"/>
</svg>
